<svg xmlns="http://www.w3.org/2000/svg" height="32" width="32"><g fill="#fff"><path d="M2.911 22.154A2.903 4.923 0 00.01 27.077 2.903 4.923 0 002.91 32h26.195a2.903 4.923 0 002.903-4.923 2.903 4.923 0 00-2.903-4.923 2.903 4.923 0 00-.016 0H2.923a2.903 4.923 0 00-.012 0z"/><path d="M7.54 14.38a1.876 6.781 0 00-1.876 6.781 1.876 6.781 0 001.876 6.782h16.933a1.876 6.781 0 001.877-6.782 1.876 6.781 0 00-1.877-6.78 1.876 6.781 0 00-.01 0H7.549a1.876 6.781 0 00-.008 0z" fill-opacity=".404" stroke="#fff" stroke-width="2.462"/></g></svg>