<svg xmlns="http://www.w3.org/2000/svg" viewBox="0 0 16.933 16.933" height="64" width="64"><path d="M0 0h16.933v16.933H0z"/><g color="#000" fill="#fff"><path style="isolation:auto;mix-blend-mode:normal;solid-color:#000;solid-opacity:1" d="M9.862 9.102a2.199 2.199 0 01-2.198 2.199 2.199 2.199 0 01-2.199-2.199 2.199 2.199 0 012.199-2.198 2.199 2.199 0 012.198 2.198zM10.4 4.15a1.33 1.33 0 01-1.331 1.33 1.33 1.33 0 01-1.33-1.33 1.33 1.33 0 011.33-1.33 1.33 1.33 0 011.33 1.33zm4.417 3.748a1.33 1.33 0 01-1.331 1.33 1.33 1.33 0 01-1.331-1.33 1.33 1.33 0 011.33-1.33 1.33 1.33 0 011.332 1.33zm-2.209 4.885a1.33 1.33 0 01-1.33 1.331 1.33 1.33 0 01-1.331-1.33 1.33 1.33 0 011.33-1.332 1.33 1.33 0 011.331 1.331zm-7.495-.602a1.33 1.33 0 01-1.33 1.33 1.33 1.33 0 01-1.332-1.33 1.33 1.33 0 011.331-1.33 1.33 1.33 0 011.331 1.33zm-.335-7.027a1.33 1.33 0 01-1.33 1.331 1.33 1.33 0 01-1.331-1.33 1.33 1.33 0 011.33-1.332 1.33 1.33 0 011.331 1.331z" overflow="visible"/><path d="M4.69 5.775l-.542.578 1.64 1.537.542-.58zm7.412 2.005l-2.366.49.16.777 2.368-.49zm-2.616 2.612l-.566.557 1.143 1.162.566-.555zm-3.791-.234l-1.117.885.494.623 1.115-.887zm2.629-4.836l-.441 1.557.763.216.442-1.556z" style="line-height:normal;font-variant-ligatures:normal;font-variant-position:normal;font-variant-caps:normal;font-variant-numeric:normal;font-variant-alternates:normal;font-feature-settings:normal;text-indent:0;text-align:start;text-decoration-line:none;text-decoration-style:solid;text-decoration-color:#000;text-transform:none;text-orientation:mixed;white-space:normal;shape-padding:0;isolation:auto;mix-blend-mode:normal;solid-color:#000;solid-opacity:1" font-weight="400" font-family="sans-serif" overflow="visible" fill-rule="evenodd"/></g></svg>