<svg width="64" height="64" viewBox="0 0 16.933 16.933" xmlns="http://www.w3.org/2000/svg"><path d="M0 .004h16.933v16.934H0z"/><g fill="#fff" color="#000"><path d="M9.644 9.007a1.855 1.855 0 01-1.855 1.855 1.855 1.855 0 01-1.855-1.855A1.855 1.855 0 017.79 7.152a1.855 1.855 0 011.855 1.855zm.454-4.177a1.123 1.123 0 01-1.123 1.123 1.123 1.123 0 01-1.123-1.122 1.123 1.123 0 011.123-1.123 1.123 1.123 0 011.123 1.123zm3.727 3.156a1.123 1.123 0 01-1.123 1.123 1.123 1.123 0 01-1.123-1.123 1.123 1.123 0 011.123-1.123 1.123 1.123 0 011.123 1.123zm-1.865 4.126a1.123 1.123 0 01-1.122 1.123 1.123 1.123 0 01-1.123-1.123 1.123 1.123 0 011.123-1.123 1.123 1.123 0 011.123 1.123zm-6.323-.506a1.123 1.123 0 01-1.123 1.123 1.123 1.123 0 01-1.123-1.123 1.123 1.123 0 011.123-1.123 1.123 1.123 0 011.123 1.123zm-.282-5.932a1.123 1.123 0 01-1.123 1.123 1.123 1.123 0 01-1.123-1.123 1.123 1.123 0 011.123-1.122 1.123 1.123 0 011.123 1.122z" style="isolation:auto;mix-blend-mode:normal"/><path d="M5.28 6.197l-.457.488 1.383 1.297.458-.49zm6.254 1.696l-1.996.414.135.656 1.998-.414zm-2.207 2.203l-.478.47.964.98.478-.468zm-3.199-.203l-.942.747.417.525.94-.748zm2.218-4.075L7.974 7.13l.644.183L8.991 6z" style="font-feature-settings:normal;font-variant-alternates:normal;font-variant-caps:normal;font-variant-ligatures:normal;font-variant-numeric:normal;font-variant-position:normal;isolation:auto;mix-blend-mode:normal;shape-padding:0;text-decoration-color:#000;text-decoration-line:none;text-decoration-style:solid;text-indent:0;text-orientation:mixed;text-transform:none;white-space:normal" fill-rule="evenodd"/></g></svg>