<svg xmlns="http://www.w3.org/2000/svg" height="32" width="32"><path d="M16.008 4.2a2.309 2.309 0 00-2.313 2.313v12.584a4.662 4.662 0 00-2.348 4.042 4.662 4.662 0 004.661 4.662 4.662 4.662 0 004.662-4.662 4.662 4.662 0 00-2.348-4.044V6.513A2.309 2.309 0 0016.008 4.2z" style="isolation:auto;mix-blend-mode:normal;solid-color:#000;solid-opacity:1" color="#000" overflow="visible" fill="none" stroke="#fff" stroke-linecap="round" stroke-linejoin="round" stroke-width=".463"/><path d="M17.49 13.142v10.987c0 .743-.661 1.34-1.482 1.34-.82 0-1.48-.597-1.48-1.34V13.143z" style="isolation:auto;mix-blend-mode:normal;solid-color:#000;solid-opacity:1" color="#000" overflow="visible" fill="#fff"/><path d="M19.767 23.139a3.758 3.758 0 01-3.759 3.758 3.758 3.758 0 01-3.758-3.758 3.758 3.758 0 013.758-3.759 3.758 3.758 0 013.759 3.759z" fill="#fff" paint-order="fill markers stroke"/></svg>