<svg xmlns="http://www.w3.org/2000/svg" height="32" width="32"><g color="#000"><path d="M16 .959a2.945 2.945 0 00-2.95 2.95V19.95a5.94 5.94 0 00-2.992 5.15A5.94 5.94 0 0016 31.042a5.94 5.94 0 005.941-5.941 5.94 5.94 0 00-2.994-5.154V3.914A2.941 2.941 0 0016 .966z" style="isolation:auto;mix-blend-mode:normal;solid-color:#000;solid-opacity:1" overflow="visible" fill="none" stroke="#fff" stroke-width="1.917" stroke-linecap="round" stroke-linejoin="round"/><path style="isolation:auto;mix-blend-mode:normal;solid-color:#000;solid-opacity:1" d="M13.243 13.794v6.81a5.269 5.269 0 00-2.516 4.493 5.269 5.269 0 005.27 5.27 5.269 5.269 0 005.272-5.27 5.269 5.269 0 00-2.518-4.49v-6.813z" overflow="visible" fill="#fff"/></g></svg>